<svg width="34" height="34" viewBox="0 0 34 34" fill="none" xmlns="http://www.w3.org/2000/svg">
<path d="M21.9583 18.6292H18.8841C16.3625 18.6292 14.3083 16.5892 14.3083 14.0534V10.9792C14.3083 10.3984 13.8408 9.91669 13.2458 9.91669H8.75498C5.48248 9.91669 2.83331 12.0417 2.83331 15.8384V25.245C2.83331 29.0417 5.48248 31.1667 8.75498 31.1667H17.0991C20.3716 31.1667 23.0208 29.0417 23.0208 25.245V19.6917C23.0208 19.0967 22.5391 18.6292 21.9583 18.6292Z" fill="#FF4E02"/>
<path d="M25.245 2.83331H22.4542H20.91H16.9008C13.6992 2.83331 11.1067 4.87331 10.9933 8.51415C11.0783 8.51415 11.1492 8.49998 11.2342 8.49998H15.2433H16.7875H19.5783C22.8508 8.49998 25.5 10.625 25.5 14.4216V17.2125V21.0516V23.8425C25.5 23.9275 25.4858 23.9983 25.4858 24.0691C28.645 23.97 31.1667 21.8733 31.1667 18.1758V15.385V11.5458V8.75498C31.1667 4.95831 28.5175 2.83331 25.245 2.83331Z" fill="#FF4E02"/>
<path d="M16.9717 10.1292C16.5325 9.69001 15.7817 9.98751 15.7817 10.5967V14.3083C15.7817 15.8667 17.0992 17.1417 18.7142 17.1417C19.72 17.1558 21.1225 17.1558 22.3267 17.1558C22.9358 17.1558 23.2475 16.4475 22.8225 16.0225C21.2783 14.4783 18.53 11.7158 16.9717 10.1292Z" fill="#D9D9D9"/>
</svg>
